<svg xmlns="http://www.w3.org/2000/svg" xmlns:xlink="http://www.w3.org/1999/xlink" viewBox="0 0 1000 1000"><defs><clipPath id="clip-path"><path fill="#FFFFFF" d="M438,525V501H307l-7.72-18H420V461H289.25l-8.17-19H959.74l22.6,68.38L971.26,544H325.63l.34.78L317.41,525ZM335.57,567l7.72,17H473v25H353.74L515.4,979.89,863,873.35,963.72,567ZM39.62,442,17,510.18l119.34,363L482.78,979.6,248.62,442Zm900.71-59L863,146.93,499.68,35.46,151,142.63,255.36,383Zm-717.44,0L129.52,168.45,59,383Z" style="fill:blue"/></clipPath></defs><title>logo-black</title><g id="Layer_1" data-name="Layer 1"><path d="M438,525V501H307l-7.72-18H420V461H289.25l-8.17-19H959.74l22.6,68.38L971.26,544H325.63l.34.78L317.41,525ZM335.57,567l7.72,17H473v25H353.74L515.4,979.89,863,873.35,963.72,567ZM39.62,442,17,510.18l119.34,363L482.78,979.6,248.62,442Zm900.71-59L863,146.93,499.68,35.46,151,142.63,255.36,383Zm-717.44,0L129.52,168.45,59,383Z" style="fill:blue"/><g style="clip-path:url(#clip-path)"><rect x="-189" y="-51" width="1348" height="1110" style="fill:#040102"/></g></g></svg>