<?xml version="1.0" standalone="no"?>
<!DOCTYPE svg PUBLIC "-//W3C//DTD SVG 20010904//EN"
 "http://www.w3.org/TR/2001/REC-SVG-20010904/DTD/svg10.dtd">
<svg version="1.0" xmlns="http://www.w3.org/2000/svg"
 width="1000.000000pt" height="1000.000000pt" viewBox="0 0 1000.000000 1000.000000"
 preserveAspectRatio="xMidYMid meet">
<metadata>
Created by potrace 1.14, written by Peter Selinger 2001-2017
</metadata>
<g transform="translate(0.000000,1000.000000) scale(0.100000,-0.100000)"
fill="#000000" stroke="none">
<path d="M4855 9684 c-77 -25 -147 -46 -155 -48 -8 -2 -44 -13 -80 -25 -36
-11 -213 -66 -395 -121 -765 -235 -1118 -344 -1255 -386 -80 -25 -152 -47
-160 -49 -8 -2 -125 -38 -260 -80 -135 -42 -252 -78 -260 -80 -8 -2 -96 -29
-195 -60 -99 -31 -200 -62 -225 -69 -72 -21 -355 -108 -358 -111 -3 -2 19 -55
54 -133 13 -29 24 -54 24 -56 0 -2 27 -64 59 -138 53 -120 165 -377 451 -1039
54 -124 107 -245 118 -270 11 -24 32 -72 46 -106 14 -35 37 -86 50 -115 13
-29 59 -134 101 -233 43 -99 86 -199 96 -222 11 -24 24 -54 29 -68 l10 -25
3425 0 c1992 0 3425 4 3425 9 0 5 -31 103 -69 217 -38 115 -135 412 -216 659
-81 248 -166 509 -190 580 -23 72 -98 299 -165 505 -67 206 -127 380 -134 387
-6 6 -58 25 -116 43 -58 17 -154 47 -215 65 -60 19 -427 131 -815 250 -750
230 -839 258 -1075 331 -82 25 -172 53 -200 61 -51 15 -602 184 -825 252 -69
22 -172 53 -230 71 -58 17 -115 35 -128 41 -13 5 -24 9 -25 8 -1 -1 -65 -21
-142 -45z"/>
<path d="M1286 8378 c-10 -33 -150 -462 -325 -993 -104 -319 -231 -704 -280
-855 -50 -150 -89 -275 -87 -277 1 -2 370 -2 819 -1 l816 3 -64 145 c-34 80
-109 251 -165 380 -56 129 -110 253 -120 275 -10 22 -39 90 -65 150 -26 61
-56 130 -67 155 -37 84 -85 193 -298 686 -43 99 -92 211 -109 247 -17 37 -31
72 -31 77 0 15 -20 22 -24 8z"/>
<path d="M282 5320 l-114 -341 72 -217 c125 -384 448 -1366 570 -1737 66 -198
147 -445 180 -550 34 -104 66 -199 70 -210 5 -11 75 -222 157 -470 l148 -450
110 -33 c61 -18 169 -51 240 -73 72 -22 157 -49 190 -59 33 -10 150 -46 260
-80 110 -34 207 -63 215 -65 8 -2 103 -32 210 -65 107 -34 204 -64 215 -67 11
-3 92 -28 180 -55 88 -27 167 -51 175 -54 8 -2 148 -44 310 -94 162 -50 354
-108 425 -130 72 -22 150 -47 175 -55 25 -8 135 -42 245 -75 110 -34 265 -82
344 -106 79 -24 150 -44 157 -44 8 0 -3 35 -31 98 -24 53 -76 171 -115 262
-40 91 -80 183 -90 205 -10 22 -30 68 -44 102 -14 35 -37 86 -50 115 -13 29
-44 100 -69 158 -40 94 -85 198 -137 315 -10 22 -47 108 -83 190 -35 83 -125
290 -200 460 -74 171 -187 432 -252 580 -64 149 -125 288 -136 310 -10 22 -80
182 -155 355 -75 173 -154 354 -175 403 -21 48 -39 89 -39 92 0 2 -14 35 -31
72 -17 37 -35 77 -40 88 -4 11 -19 46 -33 78 -14 32 -26 59 -26 61 0 3 -16 38
-35 79 -19 41 -35 77 -35 80 0 5 -22 55 -75 172 -8 17 -52 118 -98 225 -47
107 -146 336 -222 508 -75 173 -140 325 -145 338 l-10 24 -1047 0 -1048 0
-113 -340z"/>
<path d="M2819 5638 c5 -13 23 -54 39 -93 l30 -70 656 -3 656 -2 0 -110 0
-110 -604 -2 -603 -3 36 -85 37 -85 657 -3 657 -2 0 -120 0 -120 -604 0 -604
0 42 -97 43 -96 3227 0 c1774 0 3228 2 3229 4 8 9 107 325 107 339 0 8 -50
165 -111 347 l-111 333 -3394 0 -3394 0 9 -22z"/>
<path d="M3365 4390 c4 -12 20 -50 36 -85 l29 -65 650 0 650 0 0 -125 0 -125
-595 0 c-327 0 -595 -2 -595 -5 0 -5 23 -59 218 -505 49 -113 165 -378 257
-590 92 -212 175 -403 185 -425 23 -51 263 -602 390 -895 54 -124 107 -245
118 -270 59 -130 182 -419 182 -429 0 -6 5 -11 10 -11 6 0 10 -6 10 -13 0 -11
74 -187 110 -262 5 -11 37 -83 70 -159 33 -77 62 -141 64 -143 2 -2 46 10 97
26 52 16 252 77 444 136 193 58 397 121 455 139 58 19 143 45 190 59 260 79
358 109 380 117 14 5 52 16 85 26 33 9 94 28 135 41 41 14 82 26 90 28 21 5
125 37 245 75 55 17 105 32 110 34 18 4 129 38 155 47 35 12 913 281 925 283
14 3 115 36 147 48 16 6 29 20 33 36 5 23 148 460 401 1227 29 88 145 441 258
785 113 344 226 688 251 765 26 77 55 166 65 198 l18 57 -3140 0 -3139 0 6
-20z"/>
</g>
</svg>
